<svg xmlns="http://www.w3.org/2000/svg" width="100.275" height="229.446" viewBox="0 0 100.275 229.446">
  <g id="k_heart3" transform="translate(3.5 3.506)">
    <g id="b" transform="translate(0 39.712)">
      <g id="Group_386" data-name="Group 386">
        <path id="Path_365" data-name="Path 365" d="M33.023,80.991l1.157-8.672q.27-2.029.722-4.026l1.071-4.745A45.113,45.113,0,0,1,37.3,58.86l2.265-6.619,2.467-6.5.667-1.868a5.839,5.839,0,0,0,.236-3.068l-.032-.165a3.176,3.176,0,0,0-1.059-1.82l-.213-.181a3.556,3.556,0,0,0-2.277-.851l-.583,0a7.605,7.605,0,0,0-3.008.7l-1.4.668a22.717,22.717,0,0,0-2.076,1.323l-2.3,1.868c-.492.359-1.9,1.541-2.334,1.972l-1.926,1.926-1.8,2.179a33.35,33.35,0,0,0-2.806,4.22l-.7,1.331a21.86,21.86,0,0,0-2.277,6.99l-.239,2.525" transform="translate(32.537 -35.528)" fill="none" stroke="#fff" stroke-miterlimit="10" stroke-width="7"/>
        <g id="Group_385" data-name="Group 385">
          <line id="Line_356" data-name="Line 356" x2="4.32" y2="6.274" transform="translate(22.893 98.104)" fill="none" stroke="#fff" stroke-linecap="round" stroke-miterlimit="10" stroke-width="7"/>
          <g id="Group_384" data-name="Group 384">
            <line id="Line_357" data-name="Line 357" x2="4.726" y2="5.972" transform="translate(43.695 88.371)" fill="none" stroke="#fff" stroke-linecap="round" stroke-miterlimit="10" stroke-width="7"/>
            <g id="Group_383" data-name="Group 383">
              <line id="Line_358" data-name="Line 358" x2="4.779" y2="5.931" transform="translate(63.17 75.464)" fill="none" stroke="#fff" stroke-linecap="round" stroke-miterlimit="10" stroke-width="7"/>
              <path id="Path_366" data-name="Path 366" d="M71.335,205.253a7.342,7.342,0,0,1-.279,3.043,4.9,4.9,0,0,1-1.952,2.649c-2.345,1.566-8.38,3.871-13.055,5.533-8.122,2.888-17.981,2.217-19.974,1.8-4.275-.883-9.566-1.444-13.717-8.062-1.553-2.475-3.1-7.631-4.314-11.356a44.442,44.442,0,0,1-1.585-6.487l-.837-5.043c-.2-1.213-.411-3.161-.474-4.388L15,179.228a17.755,17.755,0,0,1,.415-4.8l1.463-5.932a24.528,24.528,0,0,0,.6-5.139l.012-.656a21.927,21.927,0,0,0-.537-5.24l-.042-.186a13.51,13.51,0,0,0-1.768-4.254L6.6,139.528,4.5,136.141a6.574,6.574,0,0,1-.673-1.545,8.648,8.648,0,0,1-.319-2.846l.012-.313a10.69,10.69,0,0,1,.323-2.3,8.017,8.017,0,0,1,1.083-2.495l.594-.9a6.8,6.8,0,0,1,2.528-2.161h0a10.609,10.609,0,0,1,2.988-.961l.464-.076a17.794,17.794,0,0,1,3.1-.193l2.35.058a3.074,3.074,0,0,1,2.468,1.348L30.557,140.19,13.031,114.08l-.437-.692a6.751,6.751,0,0,1-.744-1.586,9.673,9.673,0,0,1-.344-4.229,10.669,10.669,0,0,1,.928-3.437l.436-.805c.2-.266.362-.48.507-.673a9.963,9.963,0,0,1,2.181-2.14l.424-.3A9.117,9.117,0,0,1,19.3,98.875l.378-.06a20.222,20.222,0,0,1,5.538-.106l2.562.3L51.657,130,25.346,95.832A9.926,9.926,0,0,1,23.3,88.878a13.315,13.315,0,0,1,.857-4.07A9.851,9.851,0,0,1,25.146,83l.017-.024a18.489,18.489,0,0,1,2.405-2.694l.108-.1a13.124,13.124,0,0,1,2.878-1.651l1.17-.469a15.1,15.1,0,0,1,3.737-.831l3.648-.239,32.2,40.177L18.3,51.032a10.945,10.945,0,0,1-1.018-1.646,7.422,7.422,0,0,1-.716-2.179l-.184-1.2a8.234,8.234,0,0,1,1.153-5.892c.1-.14.268-.389.548-.782a4.67,4.67,0,0,1,.734-.812l.476-.414a6,6,0,0,1,1.369-.938c.185-.108.366-.207.519-.278a10.192,10.192,0,0,1,3.06-.879l.1-.012a8.264,8.264,0,0,1,2.967.171,8.4,8.4,0,0,1,4.111,1.892l1.946,2.016,5.615,6.5,50.311,58.252a42.9,42.9,0,0,1,3.809,5.1,20.55,20.55,0,0,1,1.078,1.878,22.781,22.781,0,0,1,1.885,5.258,31.567,31.567,0,0,1-.267,13.769c-.643,2.475-13.864,34.1-18,43.892-.674,1.6-3.812,9.149-4.844,11.979l-.53,1.484c-.131.427-.345,1.114-.558,1.8a22.113,22.113,0,0,0-.981,5.321c-.04.692-.064,3.328-.039,3.781l.241,3.67.245,2.492Z" transform="translate(-3.501 -35.941)" fill="none" stroke="#fff" stroke-linecap="round" stroke-miterlimit="10" stroke-width="7"/>
            </g>
          </g>
        </g>
      </g>
    </g>
    <g id="c" transform="translate(25.982 0)">
      <g id="Group_387" data-name="Group 387">
        <path id="Path_367" data-name="Path 367" d="M62.429,41.692l-4.545-3.41a69.789,69.789,0,0,1-10.5-8.073l-2.672-2.978a20.267,20.267,0,0,1-3.533-6.718l-.34-1.55a9.014,9.014,0,0,1-.2-1.276,17.783,17.783,0,0,1,.07-4.319l.163-1.048a11.278,11.278,0,0,1,2.77-5.228c.086-.1.177-.2.271-.288h0a14.236,14.236,0,0,1,1.84-1.582,8.717,8.717,0,0,1,3.1-1.462h0a10.782,10.782,0,0,1,5.1.092l.056.015a8.028,8.028,0,0,1,2.953,1.479l1.077.857a10.343,10.343,0,0,1,1.35,1.289l2.649,3.027" transform="translate(-40.537 -3.5)" fill="none" stroke="#fff" stroke-miterlimit="10" stroke-width="7"/>
        <path id="Path_368" data-name="Path 368" d="M25.368,41.692l8.17-5.146a43.02,43.02,0,0,0,8.238-6.337l2.672-2.978a20.266,20.266,0,0,0,3.533-6.718l.34-1.55a9.013,9.013,0,0,0,.2-1.276,17.783,17.783,0,0,0-.07-4.319l-.163-1.048a11.278,11.278,0,0,0-2.77-5.228c-.086-.1-.177-.2-.271-.288a14.235,14.235,0,0,0-1.84-1.582,8.717,8.717,0,0,0-3.1-1.462h0a10.782,10.782,0,0,0-5.1.092l-.056.015a12.615,12.615,0,0,0-3.648,1.972c-.488.388-2.561,2.031-2.971,2.5l-3.811,3.229" transform="translate(-7.379 -3.5)" fill="none" stroke="#fff" stroke-miterlimit="10" stroke-width="7"/>
      </g>
    </g>
  </g>
</svg>
